# xmcd
# Track frame offsets:
# 150
# 17474
# 35582
# 48319
# 66392
# 83084
# 100319
# 117803
# 137250
# 149771
# 164882
# 181697
# 197561
# 212283
# 237767
# 254344
# 265414
# 267690
# 270016
# 271281
# 276273
#
# Disc length: 3891 seconds
# Revision: 2
# Processed by: cddbd v1.5.1PL0 Copyright (c) Steve Scherf et al.
# Submitted via: VisiTrax 2.9.10.228 - For more info visit www.synapsa.com
#
DISCID=320f3115
DTITLE=Various Artist - CDX 368 april 2005
DYEAR=2005
DGENRE=Country
TTITLE0=Randy Travis - Angels
TTITLE1=Miranda Lambert - Bring me down
TTITLE2=Steve Azar - Doin' it right
TTITLE3=Carolina Rain - Louisiana love
TTITLE4=Sugarland - Something more
TTITLE5=Blue Country - That summer song
TTITLE6=Chris Ledoux - The ride
TTITLE7=Sawyer Brown - They don't understand
TTITLE8=Billy Dean - This is the life
TTITLE9=Burrito Deluxe - Everywhere I go
TTITLE10=Michale Scott - Round here
TTITLE11=Cerrito and Jett Willims - Mansion on the hill
TTITLE12=Bruce Larson - Two friends one night
TTITLE13=David Scott Humphrey - Guiding light (for Mom)
TTITLE14=Madonna Tassi - My mother
TTITLE15=Doug Alan - Land of the brave
TTITLE16=Jamie O'Neal - CMA Music Festival liner 1
TTITLE17=Jamie O'Neal - CMA Music Festival liner 2
TTITLE18=Jamie O'Neal - CMA Music Festival liner 3
TTITLE19=Cerrito and Jett Willims - Intro
TTITLE20=Cerrito and Jett Willims - Mansion on the hill
EXTD=
EXTT0=
EXTT1=
EXTT2=
EXTT3=
EXTT4=
EXTT5=
EXTT6=
EXTT7=
EXTT8=
EXTT9=
EXTT10=
EXTT11=
EXTT12=
EXTT13=
EXTT14=
EXTT15=
EXTT16=
EXTT17=
EXTT18=
EXTT19=
EXTT20=
PLAYORDER=
